<?xml version="1.0" encoding="UTF-8"?>
<svg id="Capa_1" data-name="Capa 1" xmlns="http://www.w3.org/2000/svg" viewBox="0 0 178.77 193.96">
  <defs>
    <style>
      .cls-1 {
        fill: #fcbf02;
        stroke-width: 0px;
      }
    </style>
  </defs>
  <g>
    <path class="cls-1" d="M.47,186.39v-22.2h5.67v2.99h.13c1.41-2.39,3.56-3.59,6.45-3.59,1.38,0,2.62.35,3.7,1.06,1.08.71,1.9,1.65,2.45,2.83h.09c1.62-2.6,3.84-3.9,6.66-3.9,2.31,0,4.1.7,5.39,2.1,1.28,1.4,1.93,3.33,1.93,5.78v14.93h-5.89v-13.94c0-2.54-1.14-3.81-3.42-3.81-1.24,0-2.21.44-2.92,1.32-.71.88-1.06,2.06-1.06,3.53v12.9h-5.89v-13.94c0-2.54-1.14-3.81-3.42-3.81-1.18,0-2.14.44-2.88,1.32-.74.88-1.1,2.06-1.1,3.53v12.9H.47Z"/>
    <path class="cls-1" d="M51.62,186.39c-.29-.37-.52-1.2-.69-2.47h-.09c-.64.95-1.44,1.69-2.42,2.21-.98.52-2.35.78-4.11.78-2.34,0-4.21-.59-5.63-1.77-1.41-1.18-2.12-2.86-2.12-5.02s.78-3.9,2.34-4.96c1.56-1.05,3.75-1.78,6.58-2.19,2.08-.29,3.49-.58,4.24-.89.75-.3,1.13-.84,1.13-1.62s-.32-1.45-.95-1.93c-.64-.48-1.56-.71-2.77-.71-2.68,0-4.11,1.04-4.28,3.12h-5.24c.09-2.11.94-3.85,2.55-5.24,1.62-1.38,3.95-2.08,7.01-2.08,6.23,0,9.35,2.73,9.35,8.18v11.3c0,1.67.26,2.7.78,3.07v.22h-5.67ZM45.74,182.79c1.62,0,2.89-.42,3.83-1.26.94-.84,1.41-1.83,1.41-2.99v-3.33c-.64.37-2.01.81-4.11,1.3-1.67.38-2.86.8-3.55,1.28s-1.04,1.21-1.04,2.19c0,1.88,1.15,2.81,3.46,2.81Z"/>
    <path class="cls-1" d="M71.1,193.96c-3,0-5.4-.61-7.21-1.82-1.8-1.21-2.86-2.91-3.18-5.11h5.84c.58,1.64,2.06,2.47,4.46,2.47,3.29,0,4.93-1.54,4.93-4.63v-2.42h-.13c-1.53,1.73-3.46,2.6-5.8,2.6-2.63,0-4.91-.97-6.86-2.9-1.95-1.93-2.92-4.5-2.92-7.7s.89-5.92,2.68-7.9c1.79-1.98,4.1-2.96,6.92-2.96s4.73.98,6.15,2.94h.09v-2.34h5.67v20.51c0,2.88-.88,5.14-2.64,6.75-1.79,1.67-4.46,2.51-8.01,2.51ZM71.01,180.33c1.76,0,3.07-.56,3.94-1.69s1.3-2.57,1.3-4.33-.45-3.17-1.36-4.31c-.91-1.14-2.21-1.71-3.92-1.71-1.5,0-2.7.55-3.61,1.64-.91,1.1-1.36,2.57-1.36,4.41s.45,3.34,1.36,4.39c.91,1.05,2.13,1.58,3.66,1.58Z"/>
    <path class="cls-1" d="M92.39,164.18v3.03h.13c1.53-2.42,3.72-3.64,6.58-3.64,2.28,0,4.13.77,5.54,2.32,1.41,1.54,2.12,3.54,2.12,5.99v14.5h-5.89v-13.63c0-1.21-.34-2.19-1.02-2.94-.68-.75-1.62-1.13-2.83-1.13-1.3,0-2.37.48-3.22,1.43-.85.95-1.28,2.18-1.28,3.68v12.59h-5.89v-22.2h5.76Z"/>
    <path class="cls-1" d="M130.34,183.68c-2.16,2.24-4.95,3.35-8.35,3.35s-6.19-1.12-8.35-3.35c-2.16-2.24-3.25-5.03-3.25-8.37s1.08-6.14,3.25-8.37c2.16-2.24,4.95-3.35,8.35-3.35s6.19,1.12,8.35,3.35c2.16,2.24,3.25,5.03,3.25,8.37s-1.08,6.14-3.25,8.37ZM121.99,182.53c1.76,0,3.14-.66,4.13-1.97,1-1.31,1.49-3.07,1.49-5.26s-.5-3.95-1.49-5.28c-1-1.33-2.37-1.99-4.13-1.99s-3.17.66-4.15,1.97c-.98,1.31-1.47,3.08-1.47,5.3s.49,3.95,1.47,5.26c.98,1.31,2.37,1.97,4.15,1.97Z"/>
    <path class="cls-1" d="M137.49,186.39v-30.94h5.89v30.94h-5.89Z"/>
    <path class="cls-1" d="M148.35,160.72v-5.28h5.89v5.28h-5.89ZM148.35,186.39v-22.2h5.89v22.2h-5.89Z"/>
    <path class="cls-1" d="M173.1,186.39c-.29-.37-.52-1.2-.69-2.47h-.09c-.64.95-1.44,1.69-2.42,2.21-.98.52-2.35.78-4.11.78-2.34,0-4.21-.59-5.63-1.77-1.41-1.18-2.12-2.86-2.12-5.02s.78-3.9,2.34-4.96c1.56-1.05,3.75-1.78,6.58-2.19,2.08-.29,3.49-.58,4.24-.89.75-.3,1.13-.84,1.13-1.62s-.32-1.45-.95-1.93c-.64-.48-1.56-.71-2.77-.71-2.68,0-4.11,1.04-4.28,3.12h-5.24c.09-2.11.94-3.85,2.55-5.24,1.62-1.38,3.95-2.08,7.01-2.08,6.23,0,9.35,2.73,9.35,8.18v11.3c0,1.67.26,2.7.78,3.07v.22h-5.67ZM167.22,182.79c1.62,0,2.89-.42,3.83-1.26.94-.84,1.41-1.83,1.41-2.99v-3.33c-.64.37-2.01.81-4.11,1.3-1.67.38-2.86.8-3.55,1.28s-1.04,1.21-1.04,2.19c0,1.88,1.15,2.81,3.46,2.81Z"/>
  </g>
  <path class="cls-1" d="M158.68,71.49l-3.12.97v-2.86l3.12.97c.38.12.94.27,1.67.45v.03l-1.67.44ZM136.56,145.24V41.88h-4.61v103.38h-40.67c-15.3-.01-30.58-.01-45.98-.01V41.88h-4.61v103.38H.02v-2.66c0-38.08-.05-76.16.03-114.25C.06,17.15,4.22,7.92,14.5,2.55,17.49.99,21.23.29,24.64.21,36.55-.06,48.48.46,60.37.02c13.47-.5,22.1,8.94,24.79,18.38.91,3.2,1.43,6.61,1.45,9.93.12,21.78.06,43.57.06,65.35v2.91h4.6c0-22.74,0-45.49.04-68.23.02-11.2,4.17-20.43,14.46-25.81,2.99-1.56,6.72-2.25,10.14-2.33,11.91-.27,23.84.24,35.73-.2,13.47-.5,22.1,8.94,24.79,18.38.91,3.2,1.43,6.61,1.45,9.93.12,21.78.06,43.57.06,65.35v51.57s-41.37,0-41.37,0ZM162.62,118.19c0-1.41-.41-2.58-1.24-3.48-1.09-1.18-2.57-1.77-4.42-1.77-1.64,0-2.98.47-4.03,1.41-1.05.95-1.58,2.22-1.58,3.8,0,1.36.56,2.38,1.68,3.05v.03l-1.45.08v1.65h5.76v-4.56h-1.7v2.61h-.06c-.64,0-1.2-.26-1.7-.79-.5-.52-.75-1.19-.75-2,0-.92.36-1.65,1.08-2.2.72-.55,1.64-.83,2.76-.83s2.06.26,2.77.8c.72.53,1.08,1.29,1.08,2.27,0,.67-.16,1.21-.49,1.62-.33.41-.77.69-1.31.82v2.15c1.1-.18,1.98-.67,2.64-1.46.66-.79.98-1.85.98-3.17ZM159.06,104.31v.03l-.24.12c-.17.07-.38.17-.63.3-.25.13-.46.25-.63.35l-5.98,3.7v2.12h10.83v-2.17h-5.68c-.51,0-1.13.02-1.88.06v-.03l.24-.12c.17-.07.38-.17.64-.3.25-.13.46-.24.64-.34l6.04-3.61v-2.23h-10.83v2.17h5.59c.5,0,1.14-.02,1.89-.06ZM160.56,92.44v3.26h1.85v-8.71h-1.85v3.26h-8.98v2.2h8.98ZM151.58,97.57v2.2h10.83v-2.2h-10.83ZM151.35,60.85c0,1.37.38,2.47,1.15,3.29.69.74,1.54,1.14,2.56,1.2v-2.15c-.58-.07-1.04-.32-1.39-.74-.35-.42-.52-.95-.52-1.59,0-.9.35-1.62,1.06-2.16.71-.54,1.62-.81,2.74-.81s2.05.25,2.76.76c.71.5,1.06,1.24,1.06,2.2,0,.63-.16,1.14-.48,1.54-.32.4-.76.65-1.32.75v2.18c1.07-.12,1.95-.57,2.63-1.36.68-.78,1.02-1.82,1.02-3.11,0-1.57-.54-2.82-1.61-3.77-1.07-.95-2.42-1.42-4.06-1.42s-2.97.49-4.02,1.46c-1.06.97-1.58,2.22-1.58,3.75ZM153.88,69.08v3.91l-2.3.73v2.29l10.83-3.82v-2.27l-10.83-3.77v2.23l2.3.71ZM151.34,81.71c0,1.25.3,2.27.91,3.05.61.78,1.44,1.17,2.51,1.17.45,0,.86-.07,1.2-.22s.63-.33.84-.55c.21-.22.41-.52.58-.91.18-.39.31-.75.41-1.08.1-.33.2-.76.31-1.29.19-.88.38-1.49.58-1.84.19-.35.49-.52.91-.52.38,0,.69.18.92.53.23.35.35.83.35,1.42s-.14,1.05-.42,1.43c-.28.38-.69.6-1.21.66v2.11c1.08-.08,1.91-.49,2.5-1.23.59-.74.88-1.72.88-2.95s-.28-2.25-.84-3.01c-.56-.76-1.36-1.14-2.4-1.14-.43,0-.82.07-1.16.21-.34.14-.61.32-.82.52-.21.21-.4.49-.57.85-.17.36-.3.69-.38.98-.08.3-.18.68-.29,1.14-.09.38-.15.65-.19.79-.04.14-.09.35-.17.62-.08.27-.15.46-.21.56-.07.1-.15.22-.26.36-.11.14-.23.23-.36.28-.14.05-.29.07-.46.07-.47,0-.83-.2-1.05-.59-.23-.39-.34-.9-.34-1.52,0-.78.14-1.36.42-1.75.28-.39.75-.62,1.39-.69v-2.15c-1.15.04-2.04.46-2.66,1.27-.62.81-.93,1.94-.93,3.41Z"/>
</svg>