<svg id="Capa_1" data-name="Capa 1" xmlns="http://www.w3.org/2000/svg" viewBox="0 0 125.95 60.22"><defs><style>.cls-1{fill:#fcbf02;stroke-width:0}</style></defs><path class="cls-1" d="M.07 60.22c5.62-9.71 8.44-19.67 8.44-29.87C8.51 19.05 5.67 8.94 0 0h7.89c6.85 9.12 10.28 19.23 10.28 30.35 0 10.48-3.45 20.44-10.34 29.87H.07zM27.01 60.22c5.62-9.71 8.44-19.67 8.44-29.87 0-11.3-2.84-21.41-8.51-30.35h7.89C41.68 9.12 45.1 19.23 45.1 30.35c0 10.48-3.45 20.44-10.34 29.87H27zM53.96 60.22c5.62-9.71 8.44-19.67 8.44-29.87 0-11.3-2.83-21.41-8.51-30.35h7.89c6.85 9.12 10.28 19.23 10.28 30.35 0 10.48-3.45 20.44-10.34 29.87h-7.76zM80.91 60.22c5.62-9.71 8.44-19.67 8.44-29.87 0-11.3-2.84-21.41-8.51-30.35h7.89C95.58 9.12 99 19.23 99 30.35c0 10.48-3.45 20.44-10.34 29.87H80.9zM107.85 60.22c5.62-9.71 8.44-19.67 8.44-29.87 0-11.3-2.83-21.41-8.51-30.35h7.89c6.85 9.12 10.28 19.23 10.28 30.35 0 10.48-3.45 20.44-10.34 29.87h-7.76z"/></svg>