<?xml version="1.0" encoding="UTF-8"?>
<svg id="Capa_1" data-name="Capa 1" xmlns="http://www.w3.org/2000/svg" viewBox="0 0 1567.66 176.67">
  <defs>
    <style>
      .cls-1 {
        fill: #2e3192;
        stroke-width: 0px;
      }
    </style>
  </defs>
  <path class="cls-1" d="M1567.45,115.07c-.08-3.39-.77-7.1-2.33-10.06-5.36-10.21-14.57-14.34-25.74-14.36-22.69-.04-45.38-.05-68.07-.04v-4.56h2.9c21.73,0,43.46.06,65.19-.06,3.31-.02,6.72-.53,9.91-1.44,9.42-2.67,18.83-11.23,18.33-24.61-.44-11.81.08-23.65-.2-35.48-.05-2.1-.33-4.32-.91-6.42-.36-1.28-.82-2.52-1.41-3.65-2.73-5.2-6.46-8.82-10.94-11.12-3.8-2.09-8.16-3.28-12.8-3.28H26.52c-5.06,0-9.79,1.41-13.82,3.86C5.59,7.82-.26,15.32.01,25.82c0,.1,0,.2,0,.3.44,11.81-.08,23.65.19,35.48.08,3.39.77,7.1,2.33,10.06,5.36,10.21,14.57,14.34,25.74,14.36,22.69.04,45.38.05,68.07.04v4.56h-2.9c-21.73,0-43.46-.06-65.19.06-3.31.02-6.72.53-9.91,1.44C8.93,94.79-.48,103.36.02,116.73c.44,11.81-.08,23.65.19,35.48.02.84.08,1.69.17,2.55.3,2.62.98,5.28,2.15,7.51,3.25,6.2,7.93,10.14,13.6,12.3,3.19,1.35,6.69,2.1,10.37,2.1h1396.25s7.63,0,7.63,0h110.98c6.27,0,12.03-2.17,16.57-5.8,4.56-3.41,8.2-8.46,9.33-14.96.3-1.69.43-3.48.36-5.36-.44-11.81.08-23.65-.2-35.48Z"/>
</svg>