<svg data-name="Capa 1" xmlns="http://www.w3.org/2000/svg" viewBox="0 0 1080 1080"><path d="M1252.28 566.74c-.08-3.39-.77-7.1-2.33-10.06-5.36-10.21-14.57-14.34-25.74-14.36-22.69-.04-45.38-.05-68.07-.04v-4.56h2.9c21.73 0 43.46.06 65.19-.06 3.31-.02 6.72-.53 9.91-1.44 9.42-2.67 18.83-11.23 18.33-24.61-.44-11.81.08-23.65-.2-35.48-.05-2.1-.33-4.32-.91-6.42-.36-1.28-.82-2.52-1.41-3.65-2.73-5.2-6.46-8.82-10.94-11.12-3.8-2.09-8.16-3.28-12.8-3.28H-145.97c-5.06 0-9.79 1.41-13.82 3.86-7.11 3.96-12.96 11.46-12.68 21.96v.3c.44 11.81-.08 23.65.2 35.48.08 3.39.77 7.1 2.33 10.06 5.36 10.21 14.57 14.34 25.74 14.36 22.69.04 45.38.05 68.07.04v4.56h-2.9c-21.73 0-43.46-.06-65.19.06-3.31.02-6.72.53-9.91 1.44-9.42 2.67-18.83 11.23-18.33 24.61.44 11.81-.08 23.65.2 35.48.02.84.08 1.69.17 2.55.3 2.62.98 5.28 2.15 7.51 3.25 6.2 7.93 10.14 13.6 12.3 3.19 1.35 6.69 2.1 10.37 2.1h1372.18c6.27 0 12.03-2.17 16.57-5.8 4.56-3.41 8.2-8.46 9.33-14.96.3-1.69.43-3.48.36-5.36-.44-11.81.08-23.65-.2-35.48z" style="fill:#2e3192;stroke-width:0"/></svg>